<svg width="1577" height="292" viewBox="0 0 1577 292" fill="none" xmlns="http://www.w3.org/2000/svg">
<path d="M56.14 95V53.12H69.04C72.08 53.12 74.82 53.62 77.26 54.62C79.7 55.58 81.78 56.98 83.5 58.82C85.22 60.62 86.54 62.8 87.46 65.36C88.38 67.92 88.84 70.78 88.84 73.94C88.84 77.14 88.38 80.04 87.46 82.64C86.54 85.2 85.22 87.42 83.5 89.3C81.78 91.14 79.7 92.56 77.26 93.56C74.82 94.52 72.08 95 69.04 95H56.14ZM62.5 89.6H69.04C71.76 89.6 74.1 88.96 76.06 87.68C78.02 86.36 79.52 84.52 80.56 82.16C81.64 79.8 82.18 77.06 82.18 73.94C82.18 70.78 81.64 68.06 80.56 65.78C79.52 63.46 78.02 61.68 76.06 60.44C74.1 59.16 71.76 58.52 69.04 58.52H62.5V89.6ZM107.163 95V53.12H113.523V95H107.163ZM96.6634 53.12H123.963V58.52H96.6634V53.12ZM96.6634 89.6H123.963V95H96.6634V89.6ZM150.027 95.72C146.307 95.72 143.067 94.82 140.307 93.02C137.547 91.22 135.387 88.7 133.827 85.46C132.307 82.22 131.547 78.42 131.547 74.06C131.547 69.74 132.327 65.96 133.887 62.72C135.447 59.48 137.627 56.96 140.427 55.16C143.227 53.32 146.487 52.4 150.207 52.4C153.087 52.4 155.667 52.96 157.947 54.08C160.267 55.2 162.147 56.82 163.587 58.94C165.027 61.06 165.867 63.62 166.107 66.62H159.087C158.767 63.94 157.807 61.8 156.207 60.2C154.647 58.6 152.607 57.8 150.087 57.8C147.847 57.8 145.827 58.46 144.027 59.78C142.267 61.06 140.867 62.92 139.827 65.36C138.787 67.76 138.267 70.66 138.267 74.06C138.267 77.54 138.787 80.5 139.827 82.94C140.907 85.34 142.367 87.18 144.207 88.46C146.087 89.7 148.187 90.32 150.507 90.32C152.547 90.32 154.347 89.96 155.907 89.24C157.467 88.48 158.767 87.52 159.807 86.36V78.08L152.487 78.32L152.727 72.86H166.107V88.22C164.467 90.58 162.247 92.42 159.447 93.74C156.687 95.06 153.547 95.72 150.027 95.72ZM184.85 95V53.12H191.21V95H184.85ZM174.35 53.12H201.65V58.52H174.35V53.12ZM174.35 89.6H201.65V95H174.35V89.6ZM223.694 95V58.52H210.194V53.12H243.554V58.52H230.054V95H223.694ZM254.437 84.44V79.04H277.657V84.44H254.437ZM261.157 53.12H270.277L283.237 95H276.697L268.237 67.28L265.717 58.1L263.197 67.34L254.617 95H248.197L261.157 53.12ZM261.517 49.22L266.737 39.14H273.337L266.857 49.22H261.517ZM291.661 95V53.12H298.021V89.6H319.981V95H291.661ZM327.924 95V53.12H335.844L353.304 86.72L352.824 73.76V53.12H358.944V95H351.084L333.504 61.76L334.044 74.3V95H327.924ZM379.067 95V53.12H385.427V95H379.067ZM368.567 53.12H395.868V58.52H368.567V53.12ZM368.567 89.6H395.868V95H368.567V89.6ZM378.227 49.16L383.447 39.08H390.047L383.567 49.16H378.227ZM60.22 156.44V151.04H83.44V156.44H60.22ZM66.94 125.12H76.06L89.02 167H82.48L74.02 139.28L71.5 130.1L68.98 139.34L60.4 167H53.98L66.94 125.12ZM146.007 167V125.12H152.367V167H146.007ZM135.507 125.12H162.807V130.52H135.507V125.12ZM135.507 161.6H162.807V167H135.507V161.6ZM172.55 167V125.12H180.47L197.93 158.72L197.45 145.76V125.12H203.57V167H195.71L178.13 133.76L178.67 146.3V167H172.55ZM211.994 167V125.12H242.354V130.52H218.354V142.58H234.974V147.98H218.354V167H211.994ZM265.777 167.72C262.217 167.72 259.117 166.84 256.477 165.08C253.837 163.28 251.777 160.76 250.297 157.52C248.857 154.28 248.137 150.46 248.137 146.06C248.137 141.62 248.857 137.78 250.297 134.54C251.777 131.3 253.837 128.8 256.477 127.04C259.117 125.28 262.217 124.4 265.777 124.4C269.337 124.4 272.437 125.28 275.077 127.04C277.717 128.8 279.757 131.3 281.197 134.54C282.677 137.78 283.417 141.62 283.417 146.06C283.417 150.46 282.677 154.28 281.197 157.52C279.757 160.76 277.717 163.28 275.077 165.08C272.437 166.84 269.337 167.72 265.777 167.72ZM265.777 162.32C267.977 162.32 269.897 161.66 271.537 160.34C273.177 159.02 274.457 157.14 275.377 154.7C276.297 152.26 276.757 149.38 276.757 146.06C276.757 142.7 276.297 139.82 275.377 137.42C274.457 134.98 273.177 133.1 271.537 131.78C269.897 130.46 267.977 129.8 265.777 129.8C263.617 129.8 261.697 130.46 260.017 131.78C258.377 133.1 257.097 134.98 256.177 137.42C255.257 139.86 254.797 142.74 254.797 146.06C254.797 149.38 255.257 152.26 256.177 154.7C257.097 157.14 258.377 159.02 260.017 160.34C261.697 161.66 263.617 162.32 265.777 162.32ZM294.721 149.48V144.08H305.341C307.101 144.08 308.641 143.8 309.961 143.24C311.321 142.64 312.381 141.8 313.141 140.72C313.941 139.64 314.341 138.4 314.341 137C314.341 135.64 314.001 134.48 313.321 133.52C312.641 132.56 311.721 131.82 310.561 131.3C309.401 130.78 308.101 130.52 306.661 130.52H294.721V125.12H306.661C309.421 125.12 311.881 125.6 314.041 126.56C316.201 127.48 317.901 128.82 319.141 130.58C320.381 132.34 321.001 134.48 321.001 137C321.001 138.6 320.621 140.14 319.861 141.62C319.141 143.1 318.081 144.44 316.681 145.64C315.321 146.8 313.661 147.74 311.701 148.46C309.741 149.14 307.521 149.48 305.041 149.48H294.721ZM290.161 167V125.12H296.521V167H290.161ZM314.221 167C313.981 165.12 313.461 163.26 312.661 161.42C311.901 159.58 310.861 157.82 309.541 156.14C308.221 154.46 306.581 152.9 304.621 151.46C302.701 150.02 300.461 148.72 297.901 147.56L304.981 146C307.621 147.32 309.881 148.8 311.761 150.44C313.681 152.04 315.261 153.74 316.501 155.54C317.781 157.34 318.741 159.2 319.381 161.12C320.061 163.04 320.501 165 320.701 167H314.221ZM325.464 167L328.584 125.12H336.924L342.264 149.9L343.524 158.06L344.844 149.9L350.064 125.12H358.284L361.464 167H355.164L353.784 140.78L353.544 131.54L351.744 140.78L346.044 167H340.644L335.004 140.78L333.324 131.42L332.964 140.78L331.644 167H325.464ZM370.967 156.44V151.04H394.188V156.44H370.967ZM377.687 125.12H386.807L399.768 167H393.227L384.767 139.28L382.247 130.1L379.727 139.34L371.147 167H364.727L377.687 125.12ZM421.811 167.72C418.131 167.72 414.931 166.8 412.211 164.96C409.531 163.08 407.451 160.52 405.971 157.28C404.531 154 403.811 150.24 403.811 146C403.811 141.6 404.571 137.78 406.091 134.54C407.611 131.3 409.731 128.8 412.451 127.04C415.211 125.28 418.411 124.4 422.051 124.4C424.971 124.4 427.611 124.98 429.971 126.14C432.371 127.26 434.311 128.9 435.791 131.06C437.311 133.18 438.191 135.72 438.431 138.68H431.471C431.151 136 430.151 133.86 428.471 132.26C426.791 130.62 424.631 129.8 421.991 129.8C419.711 129.8 417.691 130.46 415.931 131.78C414.211 133.06 412.871 134.92 411.911 137.36C410.951 139.8 410.471 142.7 410.471 146.06C410.471 149.42 410.951 152.32 411.911 154.76C412.911 157.2 414.271 159.08 415.991 160.4C417.711 161.68 419.651 162.32 421.811 162.32C423.691 162.32 425.331 161.94 426.731 161.18C428.131 160.38 429.251 159.28 430.091 157.88C430.971 156.48 431.491 154.84 431.651 152.96H438.671C438.391 155.92 437.531 158.52 436.091 160.76C434.651 162.96 432.711 164.68 430.271 165.92C427.871 167.12 425.051 167.72 421.811 167.72ZM411.251 111.02H417.191L421.871 117.74L426.611 111.02H432.491L425.231 121.1H418.511L411.251 111.02ZM444.454 167V125.12H452.374L469.834 158.72L469.354 145.76V125.12H475.474V167H467.614L450.034 133.76L450.574 146.3V167H444.454ZM495.598 167V125.12H501.958V167H495.598ZM485.098 125.12H512.398V130.52H485.098V125.12ZM485.098 161.6H512.398V167H485.098V161.6ZM494.758 121.16L499.978 111.08H506.578L500.098 121.16H494.758ZM60.22 228.44V223.04H83.44V228.44H60.22ZM66.94 197.12H76.06L89.02 239H82.48L74.02 211.28L71.5 202.1L68.98 211.34L60.4 239H53.98L66.94 197.12ZM111.183 239.72C107.463 239.72 104.223 238.82 101.463 237.02C98.7034 235.22 96.5434 232.7 94.9834 229.46C93.4634 226.22 92.7034 222.42 92.7034 218.06C92.7034 213.74 93.4834 209.96 95.0434 206.72C96.6034 203.48 98.7834 200.96 101.583 199.16C104.383 197.32 107.643 196.4 111.363 196.4C114.243 196.4 116.823 196.96 119.103 198.08C121.423 199.2 123.303 200.82 124.743 202.94C126.183 205.06 127.023 207.62 127.263 210.62H120.243C119.923 207.94 118.963 205.8 117.363 204.2C115.803 202.6 113.763 201.8 111.243 201.8C109.003 201.8 106.983 202.46 105.183 203.78C103.423 205.06 102.023 206.92 100.983 209.36C99.9434 211.76 99.4234 214.66 99.4234 218.06C99.4234 221.54 99.9434 224.5 100.983 226.94C102.063 229.34 103.523 231.18 105.363 232.46C107.243 233.7 109.343 234.32 111.663 234.32C113.703 234.32 115.503 233.96 117.063 233.24C118.623 232.48 119.923 231.52 120.963 230.36V222.08L113.643 222.32L113.883 216.86H127.263V232.22C125.623 234.58 123.403 236.42 120.603 237.74C117.843 239.06 114.703 239.72 111.183 239.72ZM134.667 239V197.12H164.727V202.52H141.027V214.58H157.347V219.98H141.027V233.6H164.967V239H134.667ZM172.55 239V197.12H180.47L197.93 230.72L197.45 217.76V197.12H203.57V239H195.71L178.13 205.76L178.67 218.3V239H172.55ZM223.694 239V202.52H210.194V197.12H243.554V202.52H230.054V239H223.694ZM265.777 239.72C262.497 239.72 259.637 239.08 257.197 237.8C254.757 236.48 252.857 234.66 251.497 232.34C250.137 229.98 249.457 227.24 249.457 224.12V197.12H255.877V224.12C255.877 226.16 256.277 227.94 257.077 229.46C257.917 230.98 259.077 232.16 260.557 233C262.037 233.84 263.777 234.26 265.777 234.26C267.777 234.26 269.497 233.84 270.937 233C272.417 232.16 273.557 230.98 274.357 229.46C275.197 227.94 275.617 226.16 275.617 224.12V197.12H282.037V224.12C282.037 227.24 281.357 229.98 279.997 232.34C278.637 234.66 276.737 236.48 274.297 237.8C271.897 239.08 269.057 239.72 265.777 239.72ZM294.721 221.48V216.08H305.341C307.101 216.08 308.641 215.8 309.961 215.24C311.321 214.64 312.381 213.8 313.141 212.72C313.941 211.64 314.341 210.4 314.341 209C314.341 207.64 314.001 206.48 313.321 205.52C312.641 204.56 311.721 203.82 310.561 203.3C309.401 202.78 308.101 202.52 306.661 202.52H294.721V197.12H306.661C309.421 197.12 311.881 197.6 314.041 198.56C316.201 199.48 317.901 200.82 319.141 202.58C320.381 204.34 321.001 206.48 321.001 209C321.001 210.6 320.621 212.14 319.861 213.62C319.141 215.1 318.081 216.44 316.681 217.64C315.321 218.8 313.661 219.74 311.701 220.46C309.741 221.14 307.521 221.48 305.041 221.48H294.721ZM290.161 239V197.12H296.521V239H290.161ZM314.221 239C313.981 237.12 313.461 235.26 312.661 233.42C311.901 231.58 310.861 229.82 309.541 228.14C308.221 226.46 306.581 224.9 304.621 223.46C302.701 222.02 300.461 220.72 297.901 219.56L304.981 218C307.621 219.32 309.881 220.8 311.761 222.44C313.681 224.04 315.261 225.74 316.501 227.54C317.781 229.34 318.741 231.2 319.381 233.12C320.061 235.04 320.501 237 320.701 239H314.221ZM332.124 228.44V223.04H355.344V228.44H332.124ZM338.844 197.12H347.964L360.924 239H354.384L345.924 211.28L343.404 202.1L340.884 211.34L332.304 239H325.884L338.844 197.12Z" fill="#2E2D2C"/>
<path d="M367.787 244.28V239H396.767V244.28H367.787Z" fill="#368537"/>
<path d="M594.602 36V256H589V36H594.602Z" fill="#368537"/>
<path d="M673.342 131V89.12H679.702V99.92L679.282 107.96L685.282 101.12L696.622 89.12H704.542L679.702 116.12V131H673.342ZM698.362 131L682.822 107.54L688.162 104.24L705.982 131H698.362ZM735.585 131L735.345 123.5V109.4C735.345 107.04 734.565 105.2 733.005 103.88C731.485 102.52 729.385 101.84 726.705 101.84C724.105 101.84 721.985 102.44 720.345 103.64C718.705 104.8 717.805 106.42 717.645 108.5H711.705C711.905 106.14 712.665 104.14 713.985 102.5C715.305 100.82 717.065 99.54 719.265 98.66C721.465 97.74 724.005 97.28 726.885 97.28C729.845 97.28 732.405 97.78 734.565 98.78C736.725 99.74 738.385 101.14 739.545 102.98C740.745 104.82 741.345 107.06 741.345 109.7V131H735.585ZM723.645 131.72C721.485 131.72 719.585 131.34 717.945 130.58C716.305 129.78 715.025 128.66 714.105 127.22C713.185 125.74 712.725 124.02 712.725 122.06C712.725 118.66 714.025 116.02 716.625 114.14C719.265 112.26 722.945 111.32 727.665 111.32H736.125V115.82H727.425C724.705 115.82 722.565 116.34 721.005 117.38C719.485 118.42 718.725 119.88 718.725 121.76C718.725 123.32 719.265 124.54 720.345 125.42C721.465 126.3 722.965 126.74 724.845 126.74C727.245 126.74 729.365 126.1 731.205 124.82C733.085 123.5 734.605 121.7 735.765 119.42L736.425 123.86C735.385 126.38 733.785 128.32 731.625 129.68C729.465 131.04 726.805 131.72 723.645 131.72ZM768.488 131C766.448 131 764.708 130.6 763.268 129.8C761.828 128.96 760.748 127.78 760.028 126.26C759.308 124.74 758.948 122.96 758.948 120.92V91.76L765.008 88.46V120.92C765.008 121.88 765.148 122.76 765.428 123.56C765.708 124.36 766.248 124.98 767.048 125.42C767.888 125.86 769.108 126.08 770.708 126.08H780.608V131H768.488ZM751.148 102.92V98H775.328V102.92H751.148ZM813.272 131L813.032 123.5V109.4C813.032 107.04 812.252 105.2 810.692 103.88C809.172 102.52 807.072 101.84 804.392 101.84C801.792 101.84 799.672 102.44 798.032 103.64C796.392 104.8 795.492 106.42 795.332 108.5H789.392C789.592 106.14 790.352 104.14 791.672 102.5C792.992 100.82 794.752 99.54 796.952 98.66C799.152 97.74 801.692 97.28 804.572 97.28C807.532 97.28 810.092 97.78 812.252 98.78C814.412 99.74 816.072 101.14 817.232 102.98C818.432 104.82 819.032 107.06 819.032 109.7V131H813.272ZM801.332 131.72C799.172 131.72 797.272 131.34 795.632 130.58C793.992 129.78 792.712 128.66 791.792 127.22C790.872 125.74 790.412 124.02 790.412 122.06C790.412 118.66 791.712 116.02 794.312 114.14C796.952 112.26 800.632 111.32 805.352 111.32H813.812V115.82H805.112C802.392 115.82 800.252 116.34 798.692 117.38C797.172 118.42 796.412 119.88 796.412 121.76C796.412 123.32 796.952 124.54 798.032 125.42C799.152 126.3 800.652 126.74 802.532 126.74C804.932 126.74 807.052 126.1 808.892 124.82C810.772 123.5 812.292 121.7 813.452 119.42L814.112 123.86C813.072 126.38 811.472 128.32 809.312 129.68C807.152 131.04 804.492 131.72 801.332 131.72ZM840.475 131V86.9H846.535V131H840.475ZM828.295 131V126.08H858.775V131H828.295ZM832.675 91.82V86.9H843.475V91.82H832.675ZM882.259 131.72C878.859 131.72 875.919 131.02 873.439 129.62C870.999 128.22 869.119 126.24 867.799 123.68C866.479 121.08 865.819 118.02 865.819 114.5C865.819 110.9 866.479 107.84 867.799 105.32C869.119 102.76 870.999 100.78 873.439 99.38C875.919 97.98 878.879 97.28 882.319 97.28C887.439 97.28 891.459 98.82 894.379 101.9C897.299 104.94 898.759 109.14 898.759 114.5C898.759 118.02 898.099 121.08 896.779 123.68C895.459 126.24 893.559 128.22 891.079 129.62C888.639 131.02 885.699 131.72 882.259 131.72ZM882.319 126.68C885.519 126.68 888.039 125.6 889.879 123.44C891.759 121.24 892.699 118.26 892.699 114.5C892.699 110.7 891.759 107.72 889.879 105.56C888.039 103.4 885.519 102.32 882.319 102.32C879.079 102.32 876.539 103.4 874.699 105.56C872.859 107.72 871.939 110.7 871.939 114.5C871.939 118.26 872.859 121.24 874.699 123.44C876.539 125.6 879.079 126.68 882.319 126.68ZM930.342 102.74L930.522 98H936.222V127.4C936.222 132.28 934.902 136 932.262 138.56C929.662 141.12 925.722 142.4 920.442 142.4C917.522 142.4 914.982 142 912.822 141.2C910.702 140.4 909.022 139.2 907.782 137.6C906.582 136.04 905.902 134.08 905.742 131.72H912.042C912.242 133.52 913.042 134.9 914.442 135.86C915.882 136.86 917.982 137.36 920.742 137.36C923.862 137.36 926.202 136.56 927.762 134.96C929.362 133.36 930.162 131.08 930.162 128.12V123.74C929.042 125.42 927.542 126.74 925.662 127.7C923.822 128.66 921.762 129.14 919.482 129.14C916.642 129.14 914.122 128.46 911.922 127.1C909.762 125.74 908.062 123.86 906.822 121.46C905.582 119.02 904.962 116.28 904.962 113.24C904.962 109.96 905.602 107.14 906.882 104.78C908.162 102.38 909.922 100.54 912.162 99.26C914.402 97.94 916.942 97.28 919.782 97.28C922.062 97.28 924.122 97.78 925.962 98.78C927.802 99.78 929.262 101.1 930.342 102.74ZM920.802 124.4C922.962 124.4 924.882 123.78 926.562 122.54C928.282 121.26 929.482 119.54 930.162 117.38V109.04C929.482 106.88 928.282 105.18 926.562 103.94C924.882 102.66 922.962 102.02 920.802 102.02C918.842 102.02 917.122 102.5 915.642 103.46C914.202 104.42 913.062 105.74 912.222 107.42C911.422 109.06 911.022 110.98 911.022 113.18C911.022 115.34 911.422 117.28 912.222 119C913.062 120.68 914.202 122 915.642 122.96C917.122 123.92 918.842 124.4 920.802 124.4ZM995.429 131L982.529 98H988.949L996.569 117.86L998.909 125.42L1001.31 117.86L1008.93 98H1015.11L1002.27 131H995.429ZM1034.63 114.32L1037.75 122.54L1040.87 114.26L1047.77 98H1054.07L1038.77 134.06C1037.85 136.18 1036.85 137.84 1035.77 139.04C1034.73 140.28 1033.55 141.14 1032.23 141.62C1030.91 142.14 1029.37 142.4 1027.61 142.4H1021.73V137.48H1027.19C1028.23 137.48 1029.11 137.24 1029.83 136.76C1030.59 136.32 1031.27 135.64 1031.87 134.72C1032.47 133.84 1033.07 132.68 1033.67 131.24L1034.57 129.08L1021.43 98H1027.73L1034.63 114.32ZM1067.36 98V118.82C1067.36 121.14 1068.02 123.02 1069.34 124.46C1070.66 125.86 1072.38 126.56 1074.5 126.56C1076.94 126.56 1079.1 125.68 1080.98 123.92C1082.9 122.12 1084.42 119.34 1085.54 115.58L1086.5 122.36C1085.26 125.48 1083.46 127.82 1081.1 129.38C1078.78 130.94 1076.24 131.72 1073.48 131.72C1071 131.72 1068.84 131.2 1067 130.16C1065.2 129.08 1063.8 127.6 1062.8 125.72C1061.8 123.84 1061.3 121.62 1061.3 119.06V98H1067.36ZM1090.88 98V131H1085.12L1084.82 123.56V98H1090.88ZM1101.34 131V126.56L1116.52 109.1L1122.34 102.86L1113.7 102.92H1102.18V98H1129.6V102.32L1114.36 119.84L1108.48 126.14L1117.12 126.08H1129.6V131H1101.34ZM1104.76 83.96H1110.7L1115.38 90.68L1120.12 83.96H1126L1118.74 94.04H1112.02L1104.76 83.96ZM1151.52 131V98H1157.58V131H1151.52ZM1139.34 131V126.08H1168.92V131H1139.34ZM1143.72 102.92V98H1154.52V102.92H1143.72ZM1151.1 92.36V85.82H1157.88V92.36H1151.1ZM1195.77 131C1193.73 131 1191.99 130.6 1190.55 129.8C1189.11 128.96 1188.03 127.78 1187.31 126.26C1186.59 124.74 1186.23 122.96 1186.23 120.92V91.76L1192.29 88.46V120.92C1192.29 121.88 1192.43 122.76 1192.71 123.56C1192.99 124.36 1193.53 124.98 1194.33 125.42C1195.17 125.86 1196.39 126.08 1197.99 126.08H1207.89V131H1195.77ZM1178.43 102.92V98H1202.61V102.92H1178.43ZM1229.21 131V98H1235.27V131H1229.21ZM1217.03 131V126.08H1246.61V131H1217.03ZM1221.41 102.92V98H1232.21V102.92H1221.41ZM1228.19 94.04L1233.41 83.96H1240.01L1233.53 94.04H1228.19ZM676.822 192.44V187.04H700.042V192.44H676.822ZM683.542 161.12H692.662L705.622 203H699.082L690.622 175.28L688.102 166.1L685.582 175.34L677.002 203H670.582L683.542 161.12ZM723.765 203V161.12H730.125V203H723.765ZM713.265 161.12H740.565V166.52H713.265V161.12ZM713.265 197.6H740.565V203H713.265V197.6ZM801.212 203L788.312 170H794.732L802.352 189.86L804.692 197.42L807.092 189.86L814.712 170H820.892L808.052 203H801.212ZM843.835 203.72C840.435 203.72 837.495 203.04 835.015 201.68C832.535 200.28 830.635 198.3 829.315 195.74C827.995 193.14 827.335 190.04 827.335 186.44C827.335 182.84 827.995 179.76 829.315 177.2C830.675 174.64 832.595 172.68 835.075 171.32C837.595 169.96 840.595 169.28 844.075 169.28C849.395 169.28 853.355 170.76 855.955 173.72C858.555 176.64 859.695 180.66 859.375 185.78H832.135L832.195 181.22L853.195 181.28C853.035 179.16 852.115 177.46 850.435 176.18C848.755 174.9 846.635 174.26 844.075 174.26C840.635 174.26 837.995 175.34 836.155 177.5C834.315 179.66 833.395 182.72 833.395 186.68C833.395 189.04 833.795 191.14 834.595 192.98C835.435 194.78 836.635 196.18 838.195 197.18C839.755 198.18 841.635 198.68 843.835 198.68C846.435 198.68 848.595 198.06 850.315 196.82C852.075 195.58 853.155 193.9 853.555 191.78H859.615C859.095 195.5 857.435 198.42 854.635 200.54C851.835 202.66 848.235 203.72 843.835 203.72ZM917.742 203L904.842 170H911.262L918.882 189.86L921.222 197.42L923.622 189.86L931.242 170H937.422L924.582 203H917.742ZM960.366 203.72C956.966 203.72 954.026 203.04 951.546 201.68C949.066 200.28 947.166 198.3 945.846 195.74C944.526 193.14 943.866 190.04 943.866 186.44C943.866 182.84 944.526 179.76 945.846 177.2C947.206 174.64 949.126 172.68 951.606 171.32C954.126 169.96 957.126 169.28 960.606 169.28C965.926 169.28 969.886 170.76 972.486 173.72C975.086 176.64 976.226 180.66 975.906 185.78H948.666L948.726 181.22L969.726 181.28C969.566 179.16 968.646 177.46 966.966 176.18C965.286 174.9 963.166 174.26 960.606 174.26C957.166 174.26 954.526 175.34 952.686 177.5C950.846 179.66 949.926 182.72 949.926 186.68C949.926 189.04 950.326 191.14 951.126 192.98C951.966 194.78 953.166 196.18 954.726 197.18C956.286 198.18 958.166 198.68 960.366 198.68C962.966 198.68 965.126 198.06 966.846 196.82C968.606 195.58 969.686 193.9 970.086 191.78H976.146C975.626 195.5 973.966 198.42 971.166 200.54C968.366 202.66 964.766 203.72 960.366 203.72ZM1007.85 184.16V180.2C1007.85 178.48 1007.33 177.1 1006.29 176.06C1005.25 174.98 1003.75 174.44 1001.79 174.44C999.309 174.44 997.089 175.38 995.129 177.26C993.169 179.1 991.609 181.92 990.449 185.72L989.609 179.6C990.489 177.32 991.549 175.42 992.789 173.9C994.069 172.38 995.529 171.24 997.169 170.48C998.849 169.68 1000.69 169.28 1002.69 169.28C1006.01 169.28 1008.71 170.24 1010.79 172.16C1012.87 174.04 1013.91 176.72 1013.91 180.2V184.16H1007.85ZM985.529 203V170H991.229L991.589 177.5V203H985.529ZM989.489 155.96H995.429L1000.11 162.68L1004.85 155.96H1010.73L1003.47 166.04H996.749L989.489 155.96ZM1038.05 203.72C1034.65 203.72 1031.71 203.04 1029.23 201.68C1026.75 200.28 1024.85 198.3 1023.53 195.74C1022.21 193.14 1021.55 190.04 1021.55 186.44C1021.55 182.84 1022.21 179.76 1023.53 177.2C1024.89 174.64 1026.81 172.68 1029.29 171.32C1031.81 169.96 1034.81 169.28 1038.29 169.28C1043.61 169.28 1047.57 170.76 1050.17 173.72C1052.77 176.64 1053.91 180.66 1053.59 185.78H1026.35L1026.41 181.22L1047.41 181.28C1047.25 179.16 1046.33 177.46 1044.65 176.18C1042.97 174.9 1040.85 174.26 1038.29 174.26C1034.85 174.26 1032.21 175.34 1030.37 177.5C1028.53 179.66 1027.61 182.72 1027.61 186.68C1027.61 189.04 1028.01 191.14 1028.81 192.98C1029.65 194.78 1030.85 196.18 1032.41 197.18C1033.97 198.18 1035.85 198.68 1038.05 198.68C1040.65 198.68 1042.81 198.06 1044.53 196.82C1046.29 195.58 1047.37 193.9 1047.77 191.78H1053.83C1053.31 195.5 1051.65 198.42 1048.85 200.54C1046.05 202.66 1042.45 203.72 1038.05 203.72ZM1085.6 170V203.42C1085.6 205.46 1085.22 207.24 1084.46 208.76C1083.74 210.32 1082.66 211.52 1081.22 212.36C1079.78 213.24 1077.98 213.68 1075.82 213.68H1062.32V208.76H1074.02C1075.78 208.76 1077.14 208.4 1078.1 207.68C1079.06 207 1079.54 205.64 1079.54 203.6V170H1085.6ZM1071.74 174.92V170H1082.54V174.92H1071.74ZM1079.18 164.36V157.82H1085.96V164.36H1079.18ZM1124.26 203V182.18C1124.26 179.86 1123.6 178 1122.28 176.6C1120.96 175.16 1119.24 174.44 1117.12 174.44C1114.68 174.44 1112.5 175.34 1110.58 177.14C1108.7 178.9 1107.2 181.66 1106.08 185.42L1105.12 178.64C1106.36 175.52 1108.14 173.18 1110.46 171.62C1112.82 170.06 1115.38 169.28 1118.14 169.28C1120.62 169.28 1122.76 169.82 1124.56 170.9C1126.4 171.94 1127.82 173.4 1128.82 175.28C1129.82 177.16 1130.32 179.38 1130.32 181.94V203H1124.26ZM1100.74 203V170H1106.5L1106.8 177.44V203H1100.74ZM1154.58 203.72C1151.18 203.72 1148.24 203.04 1145.76 201.68C1143.28 200.28 1141.38 198.3 1140.06 195.74C1138.74 193.14 1138.08 190.04 1138.08 186.44C1138.08 182.84 1138.74 179.76 1140.06 177.2C1141.42 174.64 1143.34 172.68 1145.82 171.32C1148.34 169.96 1151.34 169.28 1154.82 169.28C1160.14 169.28 1164.1 170.76 1166.7 173.72C1169.3 176.64 1170.44 180.66 1170.12 185.78H1142.88L1142.94 181.22L1163.94 181.28C1163.78 179.16 1162.86 177.46 1161.18 176.18C1159.5 174.9 1157.38 174.26 1154.82 174.26C1151.38 174.26 1148.74 175.34 1146.9 177.5C1145.06 179.66 1144.14 182.72 1144.14 186.68C1144.14 189.04 1144.54 191.14 1145.34 192.98C1146.18 194.78 1147.38 196.18 1148.94 197.18C1150.5 198.18 1152.38 198.68 1154.58 198.68C1157.18 198.68 1159.34 198.06 1161.06 196.82C1162.82 195.58 1163.9 193.9 1164.3 191.78H1170.36C1169.84 195.5 1168.18 198.42 1165.38 200.54C1162.58 202.66 1158.98 203.72 1154.58 203.72ZM1151.28 166.04L1156.5 155.96H1163.1L1156.62 166.04H1151.28ZM1203.99 203V178.88C1203.99 177.44 1203.73 176.32 1203.21 175.52C1202.73 174.72 1201.97 174.32 1200.93 174.32C1199.49 174.32 1198.19 175.24 1197.03 177.08C1195.91 178.92 1195.13 181.82 1194.69 185.78L1194.15 180.68C1194.27 177.08 1195.11 174.28 1196.67 172.28C1198.27 170.28 1200.23 169.28 1202.55 169.28C1204.71 169.28 1206.41 170.08 1207.65 171.68C1208.93 173.24 1209.57 175.48 1209.57 178.4V203H1203.99ZM1176.57 203V170H1181.91L1182.15 176.42V203H1176.57ZM1190.31 203V178.88C1190.31 177.36 1190.03 176.22 1189.47 175.46C1188.95 174.7 1188.15 174.32 1187.07 174.32C1185.55 174.32 1184.25 175.28 1183.17 177.2C1182.09 179.12 1181.33 181.98 1180.89 185.78L1180.77 180.5C1180.85 178.14 1181.27 176.12 1182.03 174.44C1182.79 172.76 1183.77 171.48 1184.97 170.6C1186.17 169.72 1187.45 169.28 1188.81 169.28C1191.05 169.28 1192.77 170.1 1193.97 171.74C1195.21 173.34 1195.83 175.54 1195.83 178.34V203H1190.31ZM1271.65 203.72C1268.73 203.72 1266.15 203.22 1263.91 202.22C1261.71 201.18 1260.01 199.74 1258.81 197.9C1257.61 196.02 1256.99 193.78 1256.95 191.18H1262.65C1262.65 193.62 1263.47 195.54 1265.11 196.94C1266.75 198.34 1268.91 199.04 1271.59 199.04C1273.87 199.04 1275.69 198.62 1277.05 197.78C1278.45 196.9 1279.15 195.72 1279.15 194.24C1279.15 193.08 1278.75 192.16 1277.95 191.48C1277.19 190.76 1276.17 190.2 1274.89 189.8C1273.61 189.4 1272.19 189.06 1270.63 188.78C1269.11 188.46 1267.57 188.1 1266.01 187.7C1264.49 187.26 1263.09 186.72 1261.81 186.08C1260.53 185.4 1259.49 184.5 1258.69 183.38C1257.89 182.26 1257.49 180.8 1257.49 179C1257.49 177.12 1258.03 175.46 1259.11 174.02C1260.19 172.54 1261.71 171.38 1263.67 170.54C1265.67 169.7 1268.03 169.28 1270.75 169.28C1274.87 169.28 1278.17 170.24 1280.65 172.16C1283.17 174.04 1284.53 176.64 1284.73 179.96H1279.03C1278.91 178.04 1278.11 176.56 1276.63 175.52C1275.19 174.44 1273.23 173.9 1270.75 173.9C1268.43 173.9 1266.65 174.36 1265.41 175.28C1264.21 176.2 1263.61 177.36 1263.61 178.76C1263.61 179.84 1264.01 180.7 1264.81 181.34C1265.61 181.94 1266.65 182.42 1267.93 182.78C1269.21 183.1 1270.61 183.4 1272.13 183.68C1273.69 183.92 1275.23 184.24 1276.75 184.64C1278.31 185.04 1279.73 185.6 1281.01 186.32C1282.29 187 1283.31 187.94 1284.07 189.14C1284.87 190.34 1285.27 191.9 1285.27 193.82C1285.27 196.9 1284.03 199.32 1281.55 201.08C1279.07 202.84 1275.77 203.72 1271.65 203.72ZM1309.96 203.72C1306.56 203.72 1303.62 203.04 1301.14 201.68C1298.66 200.28 1296.76 198.3 1295.44 195.74C1294.12 193.14 1293.46 190.04 1293.46 186.44C1293.46 182.84 1294.12 179.76 1295.44 177.2C1296.8 174.64 1298.72 172.68 1301.2 171.32C1303.72 169.96 1306.72 169.28 1310.2 169.28C1315.52 169.28 1319.48 170.76 1322.08 173.72C1324.68 176.64 1325.82 180.66 1325.5 185.78H1298.26L1298.32 181.22L1319.32 181.28C1319.16 179.16 1318.24 177.46 1316.56 176.18C1314.88 174.9 1312.76 174.26 1310.2 174.26C1306.76 174.26 1304.12 175.34 1302.28 177.5C1300.44 179.66 1299.52 182.72 1299.52 186.68C1299.52 189.04 1299.92 191.14 1300.72 192.98C1301.56 194.78 1302.76 196.18 1304.32 197.18C1305.88 198.18 1307.76 198.68 1309.96 198.68C1312.56 198.68 1314.72 198.06 1316.44 196.82C1318.2 195.58 1319.28 193.9 1319.68 191.78H1325.74C1325.22 195.5 1323.56 198.42 1320.76 200.54C1317.96 202.66 1314.36 203.72 1309.96 203.72ZM1333.02 203V158.9H1339.08V175.4L1338.78 184.46L1345.14 178.04L1354.14 170H1362.18L1339.08 191V203H1333.02ZM1355.76 203L1344.18 182.78L1349.52 180.14L1362.84 203H1355.76ZM1389.98 203C1387.94 203 1386.2 202.6 1384.76 201.8C1383.32 200.96 1382.24 199.78 1381.52 198.26C1380.8 196.74 1380.44 194.96 1380.44 192.92V163.76L1386.5 160.46V192.92C1386.5 193.88 1386.64 194.76 1386.92 195.56C1387.2 196.36 1387.74 196.98 1388.54 197.42C1389.38 197.86 1390.6 198.08 1392.2 198.08H1402.1V203H1389.98ZM1372.64 174.92V170H1396.82V174.92H1372.64ZM1426.07 203.72C1422.67 203.72 1419.73 203.02 1417.25 201.62C1414.81 200.22 1412.93 198.24 1411.61 195.68C1410.29 193.08 1409.63 190.02 1409.63 186.5C1409.63 182.9 1410.29 179.84 1411.61 177.32C1412.93 174.76 1414.81 172.78 1417.25 171.38C1419.73 169.98 1422.69 169.28 1426.13 169.28C1431.25 169.28 1435.27 170.82 1438.19 173.9C1441.11 176.94 1442.57 181.14 1442.57 186.5C1442.57 190.02 1441.91 193.08 1440.59 195.68C1439.27 198.24 1437.37 200.22 1434.89 201.62C1432.45 203.02 1429.51 203.72 1426.07 203.72ZM1426.13 198.68C1429.33 198.68 1431.85 197.6 1433.69 195.44C1435.57 193.24 1436.51 190.26 1436.51 186.5C1436.51 182.7 1435.57 179.72 1433.69 177.56C1431.85 175.4 1429.33 174.32 1426.13 174.32C1422.89 174.32 1420.35 175.4 1418.51 177.56C1416.67 179.72 1415.75 182.7 1415.75 186.5C1415.75 190.26 1416.67 193.24 1418.51 195.44C1420.35 197.6 1422.89 198.68 1426.13 198.68ZM1473.97 184.16V180.2C1473.97 178.48 1473.45 177.1 1472.41 176.06C1471.37 174.98 1469.87 174.44 1467.91 174.44C1465.43 174.44 1463.21 175.38 1461.25 177.26C1459.29 179.1 1457.73 181.92 1456.57 185.72L1455.73 179.6C1456.61 177.32 1457.67 175.42 1458.91 173.9C1460.19 172.38 1461.65 171.24 1463.29 170.48C1464.97 169.68 1466.81 169.28 1468.81 169.28C1472.13 169.28 1474.83 170.24 1476.91 172.16C1478.99 174.04 1480.03 176.72 1480.03 180.2V184.16H1473.97ZM1451.65 203V170H1457.35L1457.71 177.5V203H1451.65ZM1494.63 170V190.82C1494.63 193.14 1495.29 195.02 1496.61 196.46C1497.93 197.86 1499.65 198.56 1501.77 198.56C1504.21 198.56 1506.37 197.68 1508.25 195.92C1510.17 194.12 1511.69 191.34 1512.81 187.58L1513.77 194.36C1512.53 197.48 1510.73 199.82 1508.37 201.38C1506.05 202.94 1503.51 203.72 1500.75 203.72C1498.27 203.72 1496.11 203.2 1494.27 202.16C1492.47 201.08 1491.07 199.6 1490.07 197.72C1489.07 195.84 1488.57 193.62 1488.57 191.06V170H1494.63ZM1518.15 170V203H1512.39L1512.09 195.56V170H1518.15Z" fill="#2E2D2C"/>
<path d="M1528.2 208.28V203H1557.18V208.28H1528.2Z" fill="#2E2D2C"/>
</svg>
