<?xml version="1.0" encoding="UTF-8"?>
<svg id="Vrstva_1" xmlns="http://www.w3.org/2000/svg" version="1.1" viewBox="0 0 768 768">
  <!-- Generator: Adobe Illustrator 29.7.1, SVG Export Plug-In . SVG Version: 2.1.1 Build 8)  -->
  <defs>
    <style>
      .st0 {
        fill: none;
        stroke: #378638;
        stroke-miterlimit: 10;
        stroke-width: 3px;
      }

      .st1 {
        fill: #fff;
      }

      .st2 {
        fill: #378638;
      }
    </style>
  </defs>
  <rect class="st2" x="394.2" y="623.16" width="23.47" height="23.47" transform="translate(811.87 1269.79) rotate(180)"/>
  <g>
    <rect class="st1" x="282.03" y="276.4" width="232.92" height="232.92" rx="19.45" ry="19.45"/>
    <g>
      <path class="st2" d="M404.03,325.38h6.13v-6.13h-18.4v6.13h12.27Z"/>
      <path class="st2" d="M379.49,343.78h-6.13v6.13h6.13v-6.13Z"/>
      <path class="st2" d="M416.3,386.72v6.13h6.13v-12.27h-6.13v6.13Z"/>
      <path class="st2" d="M422.43,368.32v12.27h6.13v-18.4h-6.13v6.13Z"/>
      <path class="st2" d="M440.84,392.86h6.13v-12.27h-6.13v12.27Z"/>
      <path class="st2" d="M434.7,368.32v12.27h6.13v-18.4h-6.13v6.13Z"/>
      <path class="st2" d="M446.97,356.05h-6.13v6.13h6.13v-6.13Z"/>
      <path class="st2" d="M440.84,331.51v-6.13h-6.13v30.67h6.13v-6.13h6.13v-18.4h-6.13Z"/>
      <path class="st2" d="M434.7,356.05h-6.13v6.13h6.13v-6.13Z"/>
      <path class="st2" d="M434.7,386.72h-6.13v6.13h-6.13v12.27h6.13v6.13h-6.13v-6.13h-6.13v-6.13h-6.13v-18.4h6.13v-6.13h-6.13v-6.13h6.13v-6.13h6.13v-6.13h-6.13v-6.13h6.13v6.13h6.13v-30.67h-6.13v6.13h-6.13v6.13h-6.13v-6.13h-18.4v6.13h-6.13v6.13h12.27v6.13h-12.27v6.13h-6.13v6.13h-6.13v-6.13h-6.13v-6.13h-6.13v-6.13h6.13v-6.13h-6.13v-6.13h-6.13v6.13h-12.27v6.13h6.13v12.27h-6.13v6.13h12.27v6.13h6.13v6.13h6.13v6.13h-12.27v6.13h-6.13v-6.13h-6.13v6.13h-6.13v12.27h6.13v6.13h6.13v-6.13h12.27v-6.13h6.13v6.13h6.13v-6.13h18.4v6.13h6.13v6.13h-24.54v18.4h-9.18v-6.13h-6.18v6.13h-9.18v6.13h6.13v6.13h36.81v-18.4h12.27v18.4h6.13v12.27h-6.13v6.13h-6.13v12.27h6.13v-6.13h6.13v6.13h6.13v-18.4h6.13v-6.13h6.13v-12.27h-12.27v-12.27h6.13v6.13h6.13v6.13h6.13v-6.13h12.27v-6.13h-6.13v-6.13h-6.13v-12.27h6.13v-6.13h-6.13v-6.13Z"/>
    </g>
    <g>
      <polyline class="st0" points="282.64 392.19 220.27 392.19 171.94 343.85 145.95 343.85 145.95 282"/>
      <rect class="st2" x="134.22" y="274.04" width="23.47" height="23.47"/>
    </g>
    <rect class="st2" x="202.56" y="304.13" width="23.47" height="23.47"/>
    <polyline class="st0" points="214.3 315.87 263.91 315.87 282.16 334.12"/>
    <rect class="st2" x="312.13" y="175.85" width="23.47" height="23.47" transform="translate(647.72 375.16) rotate(-180)"/>
    <polyline class="st0" points="323.86 187.58 323.86 221.38 342.56 240.08 342.56 275.12"/>
    <polyline class="st0" points="416.3 276.4 416.3 232.63 400.73 217.06 400.73 150.82"/>
    <rect class="st2" x="388.99" y="139.09" width="23.47" height="23.47"/>
    <polyline class="st0" points="467.28 276.4 467.28 255.78 482.8 240.26 482.8 197.7"/>
    <rect class="st2" x="471.07" y="185.97" width="23.47" height="23.47"/>
    <rect class="st2" x="471.07" y="586.4" width="23.47" height="23.47"/>
    <polyline class="st0" points="482.8 598.14 482.8 564.34 464.1 545.64 464.1 510.6"/>
    <polyline class="st0" points="390.36 509.32 390.36 553.09 405.94 568.66 405.94 634.9"/>
    <polyline class="st0" points="339.38 509.32 339.38 529.94 323.86 545.46 323.86 588.02"/>
    <rect class="st2" x="312.13" y="576.28" width="23.47" height="23.47" transform="translate(647.72 1176.04) rotate(180)"/>
    <polyline class="st0" points="282.16 443.17 208.68 443.17 188.6 423.08 162.59 423.08 144.77 440.91 120.87 440.91"/>
    <rect class="st2" x="100.64" y="428.93" width="23.47" height="23.47"/>
    <g>
      <polyline class="st0" points="513.87 381.25 576.24 381.25 624.58 429.59 650.56 429.59 650.56 491.44"/>
      <rect class="st2" x="638.82" y="475.92" width="23.47" height="23.47" transform="translate(1301.12 975.31) rotate(180)"/>
    </g>
    <rect class="st2" x="570.48" y="445.83" width="23.47" height="23.47" transform="translate(1164.43 915.13) rotate(180)"/>
    <polyline class="st0" points="582.22 457.56 532.6 457.56 514.35 439.31"/>
    <polyline class="st0" points="514.35 330.27 587.84 330.27 607.92 350.35 633.92 350.35 651.74 332.52 675.64 332.52"/>
    <rect class="st2" x="672.4" y="321.03" width="23.47" height="23.47" transform="translate(1368.27 665.52) rotate(-180)"/>
  </g>
</svg>